<svg xmlns="http://www.w3.org/2000/svg" viewBox="0 0 1000 1000" xml:space="preserve">
    <path d="M500 990C229.4 990 10 770.6 10 500S229.4 10 500 10s490 219.4 490 490-219.4 490-490 490zm0-918.7C263.2 71.3 71.3 263.2 71.3 500c0 236.8 191.9 428.7 428.7 428.7 236.8 0 428.7-191.9 428.7-428.7.1-236.8-191.9-428.7-428.7-428.7zm43.5 428.9L673.3 630c12 12 12 31.3 0 43.3-12 12-31.4 12-43.3 0L500.2 543.5 369.5 674.1c-12 12.1-31.6 12.1-43.6 0-12-12-12-31.6 0-43.6l130.6-130.6-129.7-129.8c-12-12-12-31.3 0-43.3 12-12 31.3-12 43.3 0l129.8 129.7 131.6-131.6c12-12 31.6-12 43.6 0 12.1 12.1 12.1 31.6 0 43.7L543.5 500.2z"/>
</svg>
