<svg width="27" height="27" viewBox="0 0 27 27" fill="none" xmlns="http://www.w3.org/2000/svg">
<path d="M23.6303 18.5668C24.8461 16.2452 25.2684 13.5895 24.8328 11.0053C24.3972 8.42111 23.1276 6.05056 21.218 4.2558C19.3084 2.46104 16.8637 1.34076 14.2575 1.0661C11.6513 0.791443 9.02682 1.37751 6.78503 2.73477C4.54323 4.09203 2.80738 6.14585 1.84266 8.58247C0.877944 11.0191 0.737404 13.7045 1.44251 16.2285C2.14762 18.7526 3.65961 20.9764 5.74748 22.5602C7.83536 24.144 10.3843 25.0009 13.005 24.9997C14.8704 24.9998 16.7095 24.5595 18.3726 23.7145L24.998 24.9997L23.6303 18.5668Z" stroke="#407070" stroke-width="2" stroke-miterlimit="10"/>
<path fill-rule="evenodd" clip-rule="evenodd" d="M7.66885 11.1218C7.63859 10.5808 7.83621 9.42025 8.97179 9.35875C10.0866 9.29546 10.495 10.5532 10.4298 11.2814C10.3674 11.9838 9.93151 12.7842 9.0342 12.7967C8.13689 12.8092 7.7218 11.9152 7.66885 11.1218Z" fill="#407070"/>
<path fill-rule="evenodd" clip-rule="evenodd" d="M15.5699 10.7697C15.5359 10.2278 15.7344 9.06724 16.87 9.00217C17.9838 8.94067 18.3933 10.1984 18.328 10.9266C18.2656 11.629 17.8297 12.4294 16.9324 12.4419C16.0351 12.4544 15.62 11.563 15.5699 10.7697Z" fill="#407070"/>
<path d="M16.0381 16.8423C16.8586 15.961 16.8108 14.7644 16.8045 14.6086C16.8042 14.601 16.804 14.5959 16.804 14.5934C16.7981 14.5198 16.7614 14.4514 16.702 14.4032C16.6426 14.3551 16.5654 14.3312 16.4873 14.3367C16.4092 14.3423 16.3366 14.3769 16.2855 14.4329C16.2344 14.4889 16.2091 14.5617 16.215 14.6353L16.0381 16.8423ZM16.0381 16.8423C15.5172 17.4012 14.7673 17.7078 13.8143 17.7542L16.0381 16.8423ZM13.7792 17.0972L13.7792 17.0972C12.5117 17.1584 11.8323 16.6646 11.4646 16.1552C11.0974 15.6465 11.0329 15.1105 11.0273 15.0556C11.0244 15.0046 11.0109 14.9549 10.9876 14.9093C10.9639 14.8629 10.9308 14.8219 10.8904 14.7887C10.8501 14.7554 10.8033 14.7304 10.7531 14.7149C10.7029 14.6995 10.65 14.6938 10.5976 14.6982C10.5451 14.7026 10.494 14.7169 10.4472 14.7405C10.4003 14.7642 10.3586 14.7967 10.3248 14.8364C10.291 14.8762 10.2658 14.9224 10.251 14.9723C10.2363 15.0216 10.2323 15.0734 10.2392 15.1243C10.2437 15.1656 10.3209 15.8348 10.7639 16.5017C11.2184 17.186 12.0539 17.8604 13.5627 17.8604C13.6461 17.8604 13.7309 17.8577 13.8183 17.8541L13.8191 17.8541C14.7913 17.8068 15.5683 17.493 16.1113 16.9105L16.1113 16.9105C16.5585 16.4301 16.7559 15.8616 16.842 15.41C16.8851 15.1839 16.9006 14.9858 16.9053 14.8406C16.9077 14.768 16.9073 14.7085 16.9064 14.6653C16.9059 14.6438 16.9053 14.6263 16.9048 14.6135L16.9042 14.5982C16.9041 14.5953 16.904 14.5939 16.904 14.5934H16.9043L16.9037 14.5855C16.8955 14.4835 16.8448 14.3902 16.765 14.3255C16.6854 14.261 16.5829 14.2297 16.4802 14.237C16.3774 14.2443 16.2806 14.2898 16.2116 14.3655C16.1424 14.4413 16.1071 14.5413 16.1153 14.6433L16.1153 14.6435L16.1153 14.6435C16.1156 14.6475 16.1332 14.911 16.0672 15.263C16.0005 15.6183 15.8502 16.0556 15.5189 16.4093C15.1294 16.8246 14.5491 17.0606 13.7792 17.0972Z" fill="#407070" stroke="#407070" stroke-width="0.2"/>
</svg>
