<svg width="27" height="27" viewBox="0 0 27 27" fill="none" xmlns="http://www.w3.org/2000/svg">
<path d="M23.6303 18.5883C24.8461 16.2667 25.2684 13.611 24.8328 11.0268C24.3972 8.4426 23.1276 6.07205 21.218 4.27729C19.3084 2.48253 16.8637 1.36224 14.2575 1.08759C11.6513 0.812927 9.02682 1.39899 6.78503 2.75625C4.54323 4.11351 2.80738 6.16733 1.84266 8.60396C0.877944 11.0406 0.737404 13.726 1.44251 16.25C2.14762 18.774 3.65961 20.9978 5.74748 22.5817C7.83536 24.1655 10.3843 25.0223 13.005 25.0212C14.8704 25.0213 16.7095 24.581 18.3726 23.736L24.998 25.0212L23.6303 18.5883Z" stroke="#1D1D1B" stroke-width="2" stroke-miterlimit="10"/>
<path fill-rule="evenodd" clip-rule="evenodd" d="M7.66885 11.1433C7.63859 10.6023 7.83621 9.44173 8.97179 9.38023C10.0866 9.31694 10.495 10.5746 10.4298 11.3029C10.3674 12.0053 9.93151 12.8057 9.0342 12.8182C8.13689 12.8307 7.7218 11.9366 7.66885 11.1433Z" fill="black"/>
<path fill-rule="evenodd" clip-rule="evenodd" d="M15.5699 10.7912C15.5359 10.2493 15.7344 9.08873 16.87 9.02366C17.9838 8.96216 18.3933 10.2199 18.328 10.9481C18.2656 11.6505 17.8297 12.4509 16.9324 12.4634C16.0351 12.4759 15.62 11.5845 15.5699 10.7912Z" fill="black"/>
<path d="M16.0381 16.8638C16.8586 15.9825 16.8108 14.7859 16.8045 14.6301C16.8042 14.6225 16.804 14.6174 16.804 14.6149C16.7981 14.5413 16.7614 14.4729 16.702 14.4247C16.6426 14.3766 16.5654 14.3527 16.4873 14.3582C16.4092 14.3638 16.3366 14.3983 16.2855 14.4543C16.2344 14.5103 16.2091 14.5832 16.215 14.6568L16.0381 16.8638ZM16.0381 16.8638C15.5172 17.4227 14.7673 17.7293 13.8143 17.7757L16.0381 16.8638ZM13.7792 17.1187L13.7792 17.1187C12.5117 17.1799 11.8323 16.6861 11.4646 16.1767C11.0974 15.668 11.0329 15.132 11.0273 15.0771C11.0244 15.0261 11.0109 14.9764 10.9876 14.9308C10.9639 14.8844 10.9308 14.8434 10.8904 14.8101C10.8501 14.7769 10.8033 14.7519 10.7531 14.7364C10.7029 14.721 10.65 14.7153 10.5976 14.7197C10.5451 14.724 10.494 14.7384 10.4472 14.762C10.4003 14.7856 10.3586 14.8182 10.3248 14.8579C10.291 14.8977 10.2658 14.9439 10.251 14.9938C10.2363 15.0431 10.2323 15.0948 10.2392 15.1458C10.2437 15.1871 10.3209 15.8563 10.7639 16.5232C11.2184 17.2075 12.0539 17.8819 13.5627 17.8819C13.6461 17.8819 13.7309 17.8792 13.8183 17.8756L13.8191 17.8756C14.7913 17.8283 15.5683 17.5145 16.1113 16.932L16.1113 16.9319C16.5585 16.4516 16.7559 15.883 16.842 15.4315C16.8851 15.2054 16.9006 15.0073 16.9053 14.8621C16.9077 14.7895 16.9073 14.73 16.9064 14.6868C16.9059 14.6652 16.9053 14.6478 16.9048 14.635L16.9042 14.6196C16.9041 14.6168 16.904 14.6154 16.904 14.6149H16.9043L16.9037 14.6069C16.8955 14.505 16.8448 14.4117 16.765 14.347C16.6854 14.2825 16.5829 14.2512 16.4802 14.2585C16.3774 14.2658 16.2806 14.3113 16.2116 14.387C16.1424 14.4628 16.1071 14.5627 16.1153 14.6648L16.1153 14.6649L16.1153 14.665C16.1156 14.6689 16.1332 14.9325 16.0672 15.2845C16.0005 15.6398 15.8502 16.0771 15.5189 16.4308C15.1294 16.8461 14.5491 17.0821 13.7792 17.1187Z" fill="black" stroke="#1D1D1B" stroke-width="0.2"/>
</svg>
