<svg width="62" height="19" viewBox="0 0 62 19" fill="none" xmlns="http://www.w3.org/2000/svg">
<path d="M0.772943 17.9587C0.694492 17.8859 0.631595 17.7978 0.588045 17.7C0.544496 17.6022 0.521195 17.4965 0.519549 17.3894V1.87514C0.518835 1.76891 0.539739 1.66365 0.580986 1.56578C0.622232 1.4679 0.682959 1.37945 0.759465 1.30583C0.837117 1.2272 0.930039 1.16533 1.0325 1.12403C1.13496 1.08273 1.24479 1.06288 1.35521 1.0657H12.0598C12.167 1.06294 12.2737 1.08156 12.3736 1.12047C12.4736 1.15938 12.5648 1.2178 12.642 1.29234C12.7914 1.44683 12.8749 1.6534 12.8749 1.86839C12.8749 2.08338 12.7914 2.28995 12.642 2.44444C12.5688 2.5214 12.4805 2.58244 12.3826 2.62375C12.2847 2.66506 12.1794 2.68577 12.0732 2.68458H2.43348C2.36199 2.68458 2.29342 2.713 2.24287 2.7636C2.19231 2.8142 2.16391 2.88283 2.16391 2.95439V8.11592C2.16391 8.18748 2.19231 8.25611 2.24287 8.30671C2.29342 8.35731 2.36199 8.38573 2.43348 8.38573H9.83313C9.93932 8.38454 10.0446 8.40524 10.1425 8.44656C10.2403 8.48787 10.3287 8.54891 10.4019 8.62587C10.4801 8.70328 10.5418 8.79584 10.583 8.89791C10.6243 8.99997 10.6443 9.10938 10.6418 9.21945C10.6418 9.43413 10.5566 9.64002 10.405 9.79182C10.2533 9.94361 10.0476 10.0289 9.83313 10.0289H2.43348C2.36199 10.0289 2.29342 10.0573 2.24287 10.1079C2.19231 10.1585 2.16391 10.2271 2.16391 10.2987V17.3894C2.16673 17.4999 2.14689 17.6099 2.10563 17.7124C2.06437 17.815 2.00255 17.908 1.924 17.9857C1.84973 18.0636 1.76044 18.1257 1.66151 18.1681C1.56258 18.2105 1.45609 18.2324 1.34847 18.2324C1.24086 18.2324 1.13436 18.2105 1.03543 18.1681C0.936506 18.1257 0.847207 18.0636 0.772943 17.9857V17.9587Z" fill="#2B3333"/>
<path d="M17.3864 17.9451C17.2358 17.7935 17.1498 17.5894 17.1465 17.3758V1.72658C17.1476 1.62501 17.1694 1.52474 17.2107 1.43194C17.252 1.33914 17.3118 1.25577 17.3864 1.18695C17.4605 1.11108 17.5489 1.05079 17.6466 1.00963C17.7443 0.968469 17.8492 0.947266 17.9552 0.947266C18.0612 0.947266 18.1661 0.968469 18.2638 1.00963C18.3614 1.05079 18.4499 1.11108 18.524 1.18695C18.5986 1.25577 18.6584 1.33914 18.6997 1.43194C18.7409 1.52474 18.7628 1.62501 18.7639 1.72658V16.256C18.7638 16.2931 18.7713 16.3298 18.7861 16.3638C18.8008 16.3979 18.8223 16.4285 18.8494 16.4538C18.8765 16.4791 18.9085 16.4986 18.9434 16.511C18.9783 16.5234 19.0154 16.5284 19.0523 16.5258L26.5841 16.0132C26.6901 16.0013 26.7974 16.0133 26.8981 16.0483C26.9989 16.0833 27.0905 16.1405 27.1663 16.2156C27.2423 16.2919 27.3018 16.3829 27.3412 16.4832C27.3806 16.5834 27.3991 16.6907 27.3955 16.7984C27.3972 16.8993 27.3777 16.9996 27.3382 17.0926C27.2987 17.1855 27.2402 17.2691 27.1663 17.338C27.0254 17.4881 26.8326 17.5788 26.6272 17.5916L17.9309 18.1987C17.8264 18.2038 17.7222 18.1835 17.6273 18.1393C17.5325 18.0951 17.4498 18.0284 17.3864 17.9451Z" fill="#2B3333"/>
<path d="M42.4144 18.0605C42.2739 17.9618 42.1712 17.8181 42.1232 17.6531L40.1257 11.8521C40.1042 11.7901 40.0608 11.7381 40.0038 11.7059C39.9467 11.6736 39.8799 11.6632 39.8157 11.6767L33.8852 12.988C33.8423 12.9977 33.8025 13.0178 33.7691 13.0465C33.7358 13.0752 33.7099 13.1116 33.6938 13.1526L31.8985 17.6801C31.8512 17.8286 31.7565 17.9575 31.629 18.047C31.4951 18.1394 31.336 18.1884 31.1734 18.1873C31.0725 18.1892 30.9723 18.1698 30.8793 18.1302C30.7864 18.0907 30.7029 18.032 30.6342 17.958C30.5617 17.8798 30.5053 17.7881 30.4683 17.6881C30.4313 17.5881 30.4144 17.4817 30.4186 17.3752C30.4285 17.2277 30.4622 17.0828 30.5183 16.9462L31.7395 13.8136C31.7553 13.7714 31.7604 13.7259 31.7541 13.6813C31.7479 13.6366 31.7306 13.5943 31.7038 13.558C31.677 13.5218 31.6415 13.4929 31.6007 13.4739C31.5598 13.4549 31.5149 13.4465 31.4699 13.4494H31.4241C31.2384 13.4336 31.0653 13.3489 30.9389 13.2119C30.8034 13.0656 30.7308 12.8718 30.7367 12.6723C30.7365 12.4879 30.7993 12.3089 30.9146 12.1651C31.0199 12.026 31.1723 11.93 31.3432 11.8953L32.47 11.647C32.5129 11.6373 32.5528 11.6172 32.5861 11.5885C32.6195 11.5598 32.6453 11.5234 32.6614 11.4824L36.6591 1.25652C36.7279 1.10295 36.8429 0.974687 36.988 0.889571C37.124 0.802121 37.2818 0.754461 37.4435 0.751966C37.6057 0.751065 37.7645 0.79901 37.8991 0.889571C38.0369 0.987636 38.1421 1.12488 38.201 1.2835L43.5412 16.8355C43.618 17.0304 43.6687 17.2345 43.6921 17.4426C43.6898 17.6452 43.6085 17.8388 43.4657 17.9822C43.3911 18.0612 43.3006 18.1234 43.2003 18.1648C43.0999 18.2062 42.9919 18.2258 42.8834 18.2224C42.714 18.2189 42.5499 18.1623 42.4144 18.0605ZM39.3952 9.83388L37.5783 4.50507C37.5589 4.45388 37.5244 4.4098 37.4794 4.3787C37.4344 4.3476 37.381 4.33094 37.3263 4.33094C37.2716 4.33094 37.2182 4.3476 37.1731 4.3787C37.1281 4.4098 37.0936 4.45388 37.0742 4.50507L34.6158 10.7566C34.5984 10.8017 34.5935 10.8507 34.6015 10.8983C34.6095 10.946 34.6301 10.9907 34.6612 11.0276C34.6924 11.0645 34.7328 11.0924 34.7784 11.1084C34.824 11.1243 34.873 11.1277 34.9204 11.1182L39.1984 10.1954C39.2368 10.1875 39.2729 10.1713 39.3043 10.148C39.3358 10.1246 39.3618 10.0947 39.3805 10.0603C39.3992 10.0259 39.4103 9.98781 39.4128 9.94871C39.4153 9.90961 39.4093 9.87043 39.3952 9.83388Z" fill="#2B3333"/>
<path d="M48.7927 17.9447C48.7155 17.8716 48.6542 17.7833 48.6129 17.6853C48.5716 17.5873 48.5511 17.4817 48.5528 17.3754L48.5771 1.7262C48.5779 1.62558 48.5985 1.5261 48.6378 1.4335C48.6772 1.34089 48.7344 1.25697 48.8062 1.18657C48.8762 1.10903 48.962 1.04746 49.0578 1.00603C49.1536 0.964596 49.2572 0.944272 49.3615 0.946439C49.4899 0.9454 49.6168 0.973227 49.733 1.02787C49.8492 1.0825 49.9516 1.16256 50.0328 1.26212C50.0414 1.26986 50.0487 1.27898 50.0543 1.2891L58.8935 14.1403C58.9261 14.1872 58.9728 14.2224 59.0268 14.241C59.0808 14.2596 59.1392 14.2606 59.1938 14.2438C59.2484 14.227 59.2962 14.1933 59.3304 14.1475C59.3646 14.1018 59.3834 14.0463 59.3841 13.9892V1.7235C59.3841 1.50883 59.4693 1.30294 59.6209 1.15114C59.7726 0.999342 59.9783 0.914062 60.1928 0.914062C60.4073 0.914062 60.613 0.999342 60.7646 1.15114C60.9163 1.30294 61.0015 1.50883 61.0015 1.7235V17.3727C61.0027 17.5852 60.9204 17.7897 60.7723 17.942C60.6983 18.0218 60.608 18.0848 60.5076 18.1267C60.4071 18.1686 60.2989 18.1884 60.1901 18.1848C60.0661 18.1782 59.9452 18.1431 59.8369 18.0823C59.7147 18.0263 59.6096 17.9388 59.5323 17.8287L50.6824 5.00983C50.6498 4.96297 50.6031 4.9277 50.5491 4.90911C50.4951 4.89051 50.4366 4.88955 50.3821 4.90635C50.3275 4.92315 50.2797 4.95685 50.2455 5.0026C50.2113 5.04836 50.1925 5.10379 50.1918 5.16092L50.1729 17.3889C50.1723 17.5486 50.1244 17.7046 50.0353 17.8372C49.9462 17.9697 49.8199 18.073 49.6724 18.1338C49.5248 18.1947 49.3625 18.2105 49.206 18.1793C49.0495 18.148 48.9057 18.0711 48.7927 17.9582V17.9447Z" fill="#2B3333"/>
</svg>
