<svg width="124" height="38" viewBox="0 0 124 38" fill="none" xmlns="http://www.w3.org/2000/svg">
<mask id="path-1-outside-1_482_2675" maskUnits="userSpaceOnUse" x="0" y="0.161133" width="124" height="37" fill="black">
<rect fill="white" y="0.161133" width="124" height="37"/>
<path d="M1.51118 35.4747C1.35293 35.3294 1.22605 35.1539 1.13821 34.9587C1.05036 34.7636 1.00336 34.5529 1.00004 34.3393V3.39959C0.998596 3.18775 1.04076 2.97783 1.12396 2.78264C1.20717 2.58744 1.32966 2.41105 1.48399 2.26423C1.64063 2.10742 1.82807 1.98404 2.03475 1.90167C2.24144 1.81931 2.46298 1.77971 2.68572 1.78533H24.2788C24.4951 1.77983 24.7103 1.81697 24.9119 1.89456C25.1136 1.97216 25.2976 2.08868 25.4533 2.23733C25.7546 2.54542 25.9231 2.95738 25.9231 3.38613C25.9231 3.81488 25.7546 4.22684 25.4533 4.53493C25.3055 4.68841 25.1274 4.81014 24.93 4.89253C24.7326 4.97492 24.5202 5.01621 24.306 5.01383H4.86079C4.71658 5.01383 4.57827 5.07052 4.47629 5.17143C4.37431 5.27234 4.31702 5.4092 4.31702 5.55191V15.8454C4.31702 15.9881 4.37431 16.125 4.47629 16.2259C4.57827 16.3268 4.71658 16.3835 4.86079 16.3835H19.7872C20.0015 16.3811 20.2139 16.4224 20.4113 16.5048C20.6087 16.5872 20.7868 16.7089 20.9346 16.8624C21.0924 17.0168 21.2167 17.2014 21.2999 17.4049C21.3831 17.6085 21.4235 17.8267 21.4186 18.0462C21.4186 18.4743 21.2467 18.8849 20.9408 19.1876C20.6348 19.4904 20.2199 19.6604 19.7872 19.6604H4.86079C4.71658 19.6604 4.57827 19.7171 4.47629 19.818C4.37431 19.9189 4.31702 20.0558 4.31702 20.1985V34.3393C4.3227 34.5597 4.28269 34.779 4.19946 34.9835C4.11622 35.188 3.99153 35.3735 3.83307 35.5285C3.68327 35.684 3.50313 35.8077 3.30358 35.8923C3.10403 35.9768 2.8892 36.0204 2.67212 36.0204C2.45504 36.0204 2.24022 35.9768 2.04067 35.8923C1.84112 35.8077 1.66098 35.684 1.51118 35.5285V35.4747Z"/>
<path d="M35.0236 35.4478C34.7199 35.1456 34.5464 34.7386 34.5397 34.3124V3.10364C34.5419 2.90108 34.586 2.70111 34.6692 2.51604C34.7525 2.33097 34.8731 2.16471 35.0236 2.02747C35.1731 1.87616 35.3515 1.75593 35.5485 1.67384C35.7456 1.59175 35.9572 1.54947 36.171 1.54947C36.3848 1.54947 36.5964 1.59175 36.7934 1.67384C36.9905 1.75593 37.1689 1.87616 37.3183 2.02747C37.4689 2.16471 37.5895 2.33097 37.6728 2.51604C37.756 2.70111 37.8001 2.90108 37.8023 3.10364V32.0794C37.8021 32.1533 37.8173 32.2265 37.847 32.2944C37.8767 32.3622 37.9202 32.4233 37.9748 32.4738C38.0294 32.5243 38.0939 32.5631 38.1643 32.5878C38.2348 32.6126 38.3096 32.6227 38.3841 32.6175L53.577 31.5951C53.7908 31.5713 54.0073 31.5952 54.2105 31.6651C54.4138 31.7349 54.5987 31.8489 54.7516 31.9987C54.9048 32.1508 55.0249 32.3325 55.1044 32.5324C55.1839 32.7323 55.2211 32.9462 55.2138 33.1609C55.2173 33.3623 55.1779 33.5622 55.0983 33.7477C55.0187 33.9331 54.9006 34.0998 54.7516 34.2371C54.4673 34.5365 54.0784 34.7174 53.664 34.7429L36.1221 35.9536C35.9112 35.9639 35.701 35.9232 35.5096 35.8351C35.3183 35.747 35.1515 35.614 35.0236 35.4478Z"/>
<path d="M85.5071 35.6792C85.2237 35.4823 85.0165 35.1957 84.9199 34.8666L80.8905 23.2979C80.8471 23.1743 80.7596 23.0707 80.6445 23.0063C80.5294 22.9419 80.3946 22.9212 80.2652 22.9481L68.3023 25.5632C68.2158 25.5826 68.1353 25.6226 68.068 25.6799C68.0008 25.7371 67.9486 25.8097 67.9162 25.8914L64.2947 34.9205C64.1993 35.2167 64.0083 35.4738 63.7509 35.6523C63.4809 35.8366 63.1601 35.9343 62.832 35.9321C62.6284 35.9359 62.4263 35.8971 62.2389 35.8183C62.0514 35.7395 61.883 35.6224 61.7444 35.4747C61.5981 35.3189 61.4844 35.136 61.4097 34.9365C61.3351 34.737 61.301 34.525 61.3094 34.3124C61.3294 34.0184 61.3974 33.7295 61.5106 33.4569L63.9739 27.2097C64.0059 27.1256 64.016 27.0349 64.0035 26.9458C63.9909 26.8568 63.956 26.7723 63.9019 26.7C63.8478 26.6278 63.7763 26.5701 63.6939 26.5322C63.6115 26.4944 63.5208 26.4776 63.4301 26.4833H63.3377C62.9631 26.4519 62.614 26.283 62.3589 26.0098C62.0856 25.7179 61.9392 25.3314 61.9511 24.9336C61.9507 24.5658 62.0774 24.2089 62.31 23.922C62.5224 23.6446 62.8298 23.4533 63.1745 23.384L65.4475 22.8889C65.534 22.8695 65.6145 22.8295 65.6817 22.7723C65.749 22.7151 65.8012 22.6424 65.8336 22.5607L73.8977 2.16737C74.0365 1.86112 74.2684 1.60533 74.5611 1.43558C74.8356 1.26118 75.1539 1.16613 75.48 1.16116C75.8072 1.15936 76.1274 1.25498 76.399 1.43558C76.677 1.63115 76.8892 1.90485 77.008 2.22118L87.7801 33.2363C87.935 33.6248 88.0374 34.0319 88.0846 34.4469C88.0799 34.8509 87.916 35.237 87.6278 35.5231C87.4773 35.6805 87.2949 35.8046 87.0924 35.8871C86.89 35.9697 86.6721 36.0088 86.4533 36.002C86.1115 35.9951 85.7805 35.8822 85.5071 35.6792ZM79.4169 19.273L75.7519 8.64589C75.7128 8.5438 75.6432 8.4559 75.5524 8.39387C75.4616 8.33185 75.3538 8.29864 75.2435 8.29864C75.1332 8.29864 75.0254 8.33185 74.9346 8.39387C74.8438 8.4559 74.7742 8.5438 74.7351 8.64589L69.7759 21.1133C69.7409 21.2032 69.7309 21.3008 69.747 21.3958C69.7632 21.4909 69.8048 21.5799 69.8676 21.6536C69.9304 21.7273 70.012 21.7829 70.104 21.8147C70.196 21.8465 70.2949 21.8533 70.3904 21.8343L79.02 19.994C79.0973 19.9782 79.1702 19.9459 79.2336 19.8994C79.2971 19.8528 79.3495 19.7932 79.3873 19.7245C79.4251 19.6559 79.4473 19.58 79.4524 19.502C79.4575 19.424 79.4454 19.3459 79.4169 19.273Z"/>
<path d="M98.3727 35.4478C98.2168 35.3021 98.0933 35.126 98.01 34.9305C97.9266 34.735 97.8853 34.5245 97.8887 34.3124L97.9377 3.10364C97.9393 2.90297 97.9809 2.70459 98.0602 2.5199C98.1395 2.33522 98.255 2.16787 98.3999 2.02747C98.541 1.87284 98.714 1.75005 98.9073 1.66742C99.1006 1.58479 99.3095 1.54426 99.52 1.54858C99.779 1.54651 100.035 1.602 100.269 1.71097C100.504 1.81993 100.71 1.97958 100.874 2.17814C100.891 2.19358 100.906 2.21176 100.918 2.23195L118.748 27.8608C118.814 27.9543 118.908 28.0246 119.017 28.0617C119.126 28.0988 119.243 28.1007 119.354 28.0672C119.464 28.0337 119.56 27.9665 119.629 27.8752C119.698 27.784 119.736 27.6734 119.737 27.5595V3.09826C119.737 2.67013 119.909 2.25954 120.215 1.95681C120.521 1.65408 120.936 1.48401 121.369 1.48401C121.801 1.48401 122.216 1.65408 122.522 1.95681C122.828 2.25954 123 2.67013 123 3.09826V34.307C123.002 34.7309 122.836 35.1387 122.538 35.4424C122.388 35.6016 122.206 35.7272 122.004 35.8108C121.801 35.8943 121.583 35.9338 121.363 35.9267C121.113 35.9135 120.869 35.8436 120.651 35.7222C120.404 35.6105 120.192 35.436 120.036 35.2164L102.185 9.65211C102.119 9.55866 102.024 9.48833 101.916 9.45124C101.807 9.41415 101.689 9.41223 101.579 9.44574C101.469 9.47925 101.372 9.54646 101.303 9.6377C101.234 9.72894 101.196 9.83948 101.195 9.95342L101.157 34.3393C101.155 34.6579 101.059 34.969 100.879 35.2334C100.699 35.4978 100.445 35.7036 100.147 35.825C99.8494 35.9464 99.522 35.9779 99.2063 35.9156C98.8905 35.8532 98.6005 35.6998 98.3727 35.4747V35.4478Z"/>
</mask>
<path d="M1.51118 35.4747C1.35293 35.3294 1.22605 35.1539 1.13821 34.9587C1.05036 34.7636 1.00336 34.5529 1.00004 34.3393V3.39959C0.998596 3.18775 1.04076 2.97783 1.12396 2.78264C1.20717 2.58744 1.32966 2.41105 1.48399 2.26423C1.64063 2.10742 1.82807 1.98404 2.03475 1.90167C2.24144 1.81931 2.46298 1.77971 2.68572 1.78533H24.2788C24.4951 1.77983 24.7103 1.81697 24.9119 1.89456C25.1136 1.97216 25.2976 2.08868 25.4533 2.23733C25.7546 2.54542 25.9231 2.95738 25.9231 3.38613C25.9231 3.81488 25.7546 4.22684 25.4533 4.53493C25.3055 4.68841 25.1274 4.81014 24.93 4.89253C24.7326 4.97492 24.5202 5.01621 24.306 5.01383H4.86079C4.71658 5.01383 4.57827 5.07052 4.47629 5.17143C4.37431 5.27234 4.31702 5.4092 4.31702 5.55191V15.8454C4.31702 15.9881 4.37431 16.125 4.47629 16.2259C4.57827 16.3268 4.71658 16.3835 4.86079 16.3835H19.7872C20.0015 16.3811 20.2139 16.4224 20.4113 16.5048C20.6087 16.5872 20.7868 16.7089 20.9346 16.8624C21.0924 17.0168 21.2167 17.2014 21.2999 17.4049C21.3831 17.6085 21.4235 17.8267 21.4186 18.0462C21.4186 18.4743 21.2467 18.8849 20.9408 19.1876C20.6348 19.4904 20.2199 19.6604 19.7872 19.6604H4.86079C4.71658 19.6604 4.57827 19.7171 4.47629 19.818C4.37431 19.9189 4.31702 20.0558 4.31702 20.1985V34.3393C4.3227 34.5597 4.28269 34.779 4.19946 34.9835C4.11622 35.188 3.99153 35.3735 3.83307 35.5285C3.68327 35.684 3.50313 35.8077 3.30358 35.8923C3.10403 35.9768 2.8892 36.0204 2.67212 36.0204C2.45504 36.0204 2.24022 35.9768 2.04067 35.8923C1.84112 35.8077 1.66098 35.684 1.51118 35.5285V35.4747Z" fill="#2B3333"/>
<path d="M35.0236 35.4478C34.7199 35.1456 34.5464 34.7386 34.5397 34.3124V3.10364C34.5419 2.90108 34.586 2.70111 34.6692 2.51604C34.7525 2.33097 34.8731 2.16471 35.0236 2.02747C35.1731 1.87616 35.3515 1.75593 35.5485 1.67384C35.7456 1.59175 35.9572 1.54947 36.171 1.54947C36.3848 1.54947 36.5964 1.59175 36.7934 1.67384C36.9905 1.75593 37.1689 1.87616 37.3183 2.02747C37.4689 2.16471 37.5895 2.33097 37.6728 2.51604C37.756 2.70111 37.8001 2.90108 37.8023 3.10364V32.0794C37.8021 32.1533 37.8173 32.2265 37.847 32.2944C37.8767 32.3622 37.9202 32.4233 37.9748 32.4738C38.0294 32.5243 38.0939 32.5631 38.1643 32.5878C38.2348 32.6126 38.3096 32.6227 38.3841 32.6175L53.577 31.5951C53.7908 31.5713 54.0073 31.5952 54.2105 31.6651C54.4138 31.7349 54.5987 31.8489 54.7516 31.9987C54.9048 32.1508 55.0249 32.3325 55.1044 32.5324C55.1839 32.7323 55.2211 32.9462 55.2138 33.1609C55.2173 33.3623 55.1779 33.5622 55.0983 33.7477C55.0187 33.9331 54.9006 34.0998 54.7516 34.2371C54.4673 34.5365 54.0784 34.7174 53.664 34.7429L36.1221 35.9536C35.9112 35.9639 35.701 35.9232 35.5096 35.8351C35.3183 35.747 35.1515 35.614 35.0236 35.4478Z" fill="#2B3333"/>
<path d="M85.5071 35.6792C85.2237 35.4823 85.0165 35.1957 84.9199 34.8666L80.8905 23.2979C80.8471 23.1743 80.7596 23.0707 80.6445 23.0063C80.5294 22.9419 80.3946 22.9212 80.2652 22.9481L68.3023 25.5632C68.2158 25.5826 68.1353 25.6226 68.068 25.6799C68.0008 25.7371 67.9486 25.8097 67.9162 25.8914L64.2947 34.9205C64.1993 35.2167 64.0083 35.4738 63.7509 35.6523C63.4809 35.8366 63.1601 35.9343 62.832 35.9321C62.6284 35.9359 62.4263 35.8971 62.2389 35.8183C62.0514 35.7395 61.883 35.6224 61.7444 35.4747C61.5981 35.3189 61.4844 35.136 61.4097 34.9365C61.3351 34.737 61.301 34.525 61.3094 34.3124C61.3294 34.0184 61.3974 33.7295 61.5106 33.4569L63.9739 27.2097C64.0059 27.1256 64.016 27.0349 64.0035 26.9458C63.9909 26.8568 63.956 26.7723 63.9019 26.7C63.8478 26.6278 63.7763 26.5701 63.6939 26.5322C63.6115 26.4944 63.5208 26.4776 63.4301 26.4833H63.3377C62.9631 26.4519 62.614 26.283 62.3589 26.0098C62.0856 25.7179 61.9392 25.3314 61.9511 24.9336C61.9507 24.5658 62.0774 24.2089 62.31 23.922C62.5224 23.6446 62.8298 23.4533 63.1745 23.384L65.4475 22.8889C65.534 22.8695 65.6145 22.8295 65.6817 22.7723C65.749 22.7151 65.8012 22.6424 65.8336 22.5607L73.8977 2.16737C74.0365 1.86112 74.2684 1.60533 74.5611 1.43558C74.8356 1.26118 75.1539 1.16613 75.48 1.16116C75.8072 1.15936 76.1274 1.25498 76.399 1.43558C76.677 1.63115 76.8892 1.90485 77.008 2.22118L87.7801 33.2363C87.935 33.6248 88.0374 34.0319 88.0846 34.4469C88.0799 34.8509 87.916 35.237 87.6278 35.5231C87.4773 35.6805 87.2949 35.8046 87.0924 35.8871C86.89 35.9697 86.6721 36.0088 86.4533 36.002C86.1115 35.9951 85.7805 35.8822 85.5071 35.6792ZM79.4169 19.273L75.7519 8.64589C75.7128 8.5438 75.6432 8.4559 75.5524 8.39387C75.4616 8.33185 75.3538 8.29864 75.2435 8.29864C75.1332 8.29864 75.0254 8.33185 74.9346 8.39387C74.8438 8.4559 74.7742 8.5438 74.7351 8.64589L69.7759 21.1133C69.7409 21.2032 69.7309 21.3008 69.747 21.3958C69.7632 21.4909 69.8048 21.5799 69.8676 21.6536C69.9304 21.7273 70.012 21.7829 70.104 21.8147C70.196 21.8465 70.2949 21.8533 70.3904 21.8343L79.02 19.994C79.0973 19.9782 79.1702 19.9459 79.2336 19.8994C79.2971 19.8528 79.3495 19.7932 79.3873 19.7245C79.4251 19.6559 79.4473 19.58 79.4524 19.502C79.4575 19.424 79.4454 19.3459 79.4169 19.273Z" fill="#2B3333"/>
<path d="M98.3727 35.4478C98.2168 35.3021 98.0933 35.126 98.01 34.9305C97.9266 34.735 97.8853 34.5245 97.8887 34.3124L97.9377 3.10364C97.9393 2.90297 97.9809 2.70459 98.0602 2.5199C98.1395 2.33522 98.255 2.16787 98.3999 2.02747C98.541 1.87284 98.714 1.75005 98.9073 1.66742C99.1006 1.58479 99.3095 1.54426 99.52 1.54858C99.779 1.54651 100.035 1.602 100.269 1.71097C100.504 1.81993 100.71 1.97958 100.874 2.17814C100.891 2.19358 100.906 2.21176 100.918 2.23195L118.748 27.8608C118.814 27.9543 118.908 28.0246 119.017 28.0617C119.126 28.0988 119.243 28.1007 119.354 28.0672C119.464 28.0337 119.56 27.9665 119.629 27.8752C119.698 27.784 119.736 27.6734 119.737 27.5595V3.09826C119.737 2.67013 119.909 2.25954 120.215 1.95681C120.521 1.65408 120.936 1.48401 121.369 1.48401C121.801 1.48401 122.216 1.65408 122.522 1.95681C122.828 2.25954 123 2.67013 123 3.09826V34.307C123.002 34.7309 122.836 35.1387 122.538 35.4424C122.388 35.6016 122.206 35.7272 122.004 35.8108C121.801 35.8943 121.583 35.9338 121.363 35.9267C121.113 35.9135 120.869 35.8436 120.651 35.7222C120.404 35.6105 120.192 35.436 120.036 35.2164L102.185 9.65211C102.119 9.55866 102.024 9.48833 101.916 9.45124C101.807 9.41415 101.689 9.41223 101.579 9.44574C101.469 9.47925 101.372 9.54646 101.303 9.6377C101.234 9.72894 101.196 9.83948 101.195 9.95342L101.157 34.3393C101.155 34.6579 101.059 34.969 100.879 35.2334C100.699 35.4978 100.445 35.7036 100.147 35.825C99.8494 35.9464 99.522 35.9779 99.2063 35.9156C98.8905 35.8532 98.6005 35.6998 98.3727 35.4747V35.4478Z" fill="#2B3333"/>
<path d="M1.51118 35.4747C1.35293 35.3294 1.22605 35.1539 1.13821 34.9587C1.05036 34.7636 1.00336 34.5529 1.00004 34.3393V3.39959C0.998596 3.18775 1.04076 2.97783 1.12396 2.78264C1.20717 2.58744 1.32966 2.41105 1.48399 2.26423C1.64063 2.10742 1.82807 1.98404 2.03475 1.90167C2.24144 1.81931 2.46298 1.77971 2.68572 1.78533H24.2788C24.4951 1.77983 24.7103 1.81697 24.9119 1.89456C25.1136 1.97216 25.2976 2.08868 25.4533 2.23733C25.7546 2.54542 25.9231 2.95738 25.9231 3.38613C25.9231 3.81488 25.7546 4.22684 25.4533 4.53493C25.3055 4.68841 25.1274 4.81014 24.93 4.89253C24.7326 4.97492 24.5202 5.01621 24.306 5.01383H4.86079C4.71658 5.01383 4.57827 5.07052 4.47629 5.17143C4.37431 5.27234 4.31702 5.4092 4.31702 5.55191V15.8454C4.31702 15.9881 4.37431 16.125 4.47629 16.2259C4.57827 16.3268 4.71658 16.3835 4.86079 16.3835H19.7872C20.0015 16.3811 20.2139 16.4224 20.4113 16.5048C20.6087 16.5872 20.7868 16.7089 20.9346 16.8624C21.0924 17.0168 21.2167 17.2014 21.2999 17.4049C21.3831 17.6085 21.4235 17.8267 21.4186 18.0462C21.4186 18.4743 21.2467 18.8849 20.9408 19.1876C20.6348 19.4904 20.2199 19.6604 19.7872 19.6604H4.86079C4.71658 19.6604 4.57827 19.7171 4.47629 19.818C4.37431 19.9189 4.31702 20.0558 4.31702 20.1985V34.3393C4.3227 34.5597 4.28269 34.779 4.19946 34.9835C4.11622 35.188 3.99153 35.3735 3.83307 35.5285C3.68327 35.684 3.50313 35.8077 3.30358 35.8923C3.10403 35.9768 2.8892 36.0204 2.67212 36.0204C2.45504 36.0204 2.24022 35.9768 2.04067 35.8923C1.84112 35.8077 1.66098 35.684 1.51118 35.5285V35.4747Z" stroke="#2B3333" stroke-width="2" mask="url(#path-1-outside-1_482_2675)"/>
<path d="M35.0236 35.4478C34.7199 35.1456 34.5464 34.7386 34.5397 34.3124V3.10364C34.5419 2.90108 34.586 2.70111 34.6692 2.51604C34.7525 2.33097 34.8731 2.16471 35.0236 2.02747C35.1731 1.87616 35.3515 1.75593 35.5485 1.67384C35.7456 1.59175 35.9572 1.54947 36.171 1.54947C36.3848 1.54947 36.5964 1.59175 36.7934 1.67384C36.9905 1.75593 37.1689 1.87616 37.3183 2.02747C37.4689 2.16471 37.5895 2.33097 37.6728 2.51604C37.756 2.70111 37.8001 2.90108 37.8023 3.10364V32.0794C37.8021 32.1533 37.8173 32.2265 37.847 32.2944C37.8767 32.3622 37.9202 32.4233 37.9748 32.4738C38.0294 32.5243 38.0939 32.5631 38.1643 32.5878C38.2348 32.6126 38.3096 32.6227 38.3841 32.6175L53.577 31.5951C53.7908 31.5713 54.0073 31.5952 54.2105 31.6651C54.4138 31.7349 54.5987 31.8489 54.7516 31.9987C54.9048 32.1508 55.0249 32.3325 55.1044 32.5324C55.1839 32.7323 55.2211 32.9462 55.2138 33.1609C55.2173 33.3623 55.1779 33.5622 55.0983 33.7477C55.0187 33.9331 54.9006 34.0998 54.7516 34.2371C54.4673 34.5365 54.0784 34.7174 53.664 34.7429L36.1221 35.9536C35.9112 35.9639 35.701 35.9232 35.5096 35.8351C35.3183 35.747 35.1515 35.614 35.0236 35.4478Z" stroke="#2B3333" stroke-width="2" mask="url(#path-1-outside-1_482_2675)"/>
<path d="M85.5071 35.6792C85.2237 35.4823 85.0165 35.1957 84.9199 34.8666L80.8905 23.2979C80.8471 23.1743 80.7596 23.0707 80.6445 23.0063C80.5294 22.9419 80.3946 22.9212 80.2652 22.9481L68.3023 25.5632C68.2158 25.5826 68.1353 25.6226 68.068 25.6799C68.0008 25.7371 67.9486 25.8097 67.9162 25.8914L64.2947 34.9205C64.1993 35.2167 64.0083 35.4738 63.7509 35.6523C63.4809 35.8366 63.1601 35.9343 62.832 35.9321C62.6284 35.9359 62.4263 35.8971 62.2389 35.8183C62.0514 35.7395 61.883 35.6224 61.7444 35.4747C61.5981 35.3189 61.4844 35.136 61.4097 34.9365C61.3351 34.737 61.301 34.525 61.3094 34.3124C61.3294 34.0184 61.3974 33.7295 61.5106 33.4569L63.9739 27.2097C64.0059 27.1256 64.016 27.0349 64.0035 26.9458C63.9909 26.8568 63.956 26.7723 63.9019 26.7C63.8478 26.6278 63.7763 26.5701 63.6939 26.5322C63.6115 26.4944 63.5208 26.4776 63.4301 26.4833H63.3377C62.9631 26.4519 62.614 26.283 62.3589 26.0098C62.0856 25.7179 61.9392 25.3314 61.9511 24.9336C61.9507 24.5658 62.0774 24.2089 62.31 23.922C62.5224 23.6446 62.8298 23.4533 63.1745 23.384L65.4475 22.8889C65.534 22.8695 65.6145 22.8295 65.6817 22.7723C65.749 22.7151 65.8012 22.6424 65.8336 22.5607L73.8977 2.16737C74.0365 1.86112 74.2684 1.60533 74.5611 1.43558C74.8356 1.26118 75.1539 1.16613 75.48 1.16116C75.8072 1.15936 76.1274 1.25498 76.399 1.43558C76.677 1.63115 76.8892 1.90485 77.008 2.22118L87.7801 33.2363C87.935 33.6248 88.0374 34.0319 88.0846 34.4469C88.0799 34.8509 87.916 35.237 87.6278 35.5231C87.4773 35.6805 87.2949 35.8046 87.0924 35.8871C86.89 35.9697 86.6721 36.0088 86.4533 36.002C86.1115 35.9951 85.7805 35.8822 85.5071 35.6792ZM79.4169 19.273L75.7519 8.64589C75.7128 8.5438 75.6432 8.4559 75.5524 8.39387C75.4616 8.33185 75.3538 8.29864 75.2435 8.29864C75.1332 8.29864 75.0254 8.33185 74.9346 8.39387C74.8438 8.4559 74.7742 8.5438 74.7351 8.64589L69.7759 21.1133C69.7409 21.2032 69.7309 21.3008 69.747 21.3958C69.7632 21.4909 69.8048 21.5799 69.8676 21.6536C69.9304 21.7273 70.012 21.7829 70.104 21.8147C70.196 21.8465 70.2949 21.8533 70.3904 21.8343L79.02 19.994C79.0973 19.9782 79.1702 19.9459 79.2336 19.8994C79.2971 19.8528 79.3495 19.7932 79.3873 19.7245C79.4251 19.6559 79.4473 19.58 79.4524 19.502C79.4575 19.424 79.4454 19.3459 79.4169 19.273Z" stroke="#2B3333" stroke-width="2" mask="url(#path-1-outside-1_482_2675)"/>
<path d="M98.3727 35.4478C98.2168 35.3021 98.0933 35.126 98.01 34.9305C97.9266 34.735 97.8853 34.5245 97.8887 34.3124L97.9377 3.10364C97.9393 2.90297 97.9809 2.70459 98.0602 2.5199C98.1395 2.33522 98.255 2.16787 98.3999 2.02747C98.541 1.87284 98.714 1.75005 98.9073 1.66742C99.1006 1.58479 99.3095 1.54426 99.52 1.54858C99.779 1.54651 100.035 1.602 100.269 1.71097C100.504 1.81993 100.71 1.97958 100.874 2.17814C100.891 2.19358 100.906 2.21176 100.918 2.23195L118.748 27.8608C118.814 27.9543 118.908 28.0246 119.017 28.0617C119.126 28.0988 119.243 28.1007 119.354 28.0672C119.464 28.0337 119.56 27.9665 119.629 27.8752C119.698 27.784 119.736 27.6734 119.737 27.5595V3.09826C119.737 2.67013 119.909 2.25954 120.215 1.95681C120.521 1.65408 120.936 1.48401 121.369 1.48401C121.801 1.48401 122.216 1.65408 122.522 1.95681C122.828 2.25954 123 2.67013 123 3.09826V34.307C123.002 34.7309 122.836 35.1387 122.538 35.4424C122.388 35.6016 122.206 35.7272 122.004 35.8108C121.801 35.8943 121.583 35.9338 121.363 35.9267C121.113 35.9135 120.869 35.8436 120.651 35.7222C120.404 35.6105 120.192 35.436 120.036 35.2164L102.185 9.65211C102.119 9.55866 102.024 9.48833 101.916 9.45124C101.807 9.41415 101.689 9.41223 101.579 9.44574C101.469 9.47925 101.372 9.54646 101.303 9.6377C101.234 9.72894 101.196 9.83948 101.195 9.95342L101.157 34.3393C101.155 34.6579 101.059 34.969 100.879 35.2334C100.699 35.4978 100.445 35.7036 100.147 35.825C99.8494 35.9464 99.522 35.9779 99.2063 35.9156C98.8905 35.8532 98.6005 35.6998 98.3727 35.4747V35.4478Z" stroke="#2B3333" stroke-width="2" mask="url(#path-1-outside-1_482_2675)"/>
</svg>
