<svg width="32" height="29" viewBox="0 0 32 29" fill="none" xmlns="http://www.w3.org/2000/svg">
<path d="M16.0735 26.0215C16.7044 26.7973 16.7044 26.7973 16.7046 26.7972L16.705 26.7968L16.7066 26.7955L16.7126 26.7906L16.7359 26.7717L16.8257 26.6983C16.9042 26.634 17.0193 26.5395 17.1664 26.4182C17.4605 26.1756 17.8825 25.8255 18.3957 25.3945C19.4216 24.5327 20.8136 23.3458 22.2759 22.0466C23.7368 20.7487 25.2756 19.3319 26.5922 18.0113C27.8901 16.7095 29.0346 15.4402 29.6515 14.4485C30.9077 12.4289 31.4323 9.16075 30.589 6.36356C30.1599 4.94012 29.3629 3.59433 28.0804 2.60641C26.7978 1.61839 25.1031 1.04518 22.9782 1.0405C21.3343 0.958648 19.7049 1.38325 18.3081 2.25728C17.4344 2.80402 16.6781 3.51012 16.0748 4.33339C15.4555 3.48575 14.6743 2.76205 13.7701 2.20805C12.3426 1.33348 10.6799 0.92553 9.01175 1.04052C6.93069 1.04692 5.25424 1.60303 3.97459 2.56568C2.69179 3.53068 1.8773 4.85176 1.43281 6.26635C0.557655 9.0515 1.07084 12.3366 2.42319 14.4996C3.08784 15.5627 4.25865 16.8636 5.5772 18.1792C6.91162 19.5107 8.45511 20.9133 9.91407 22.1875C11.3745 23.463 12.7583 24.6168 13.7765 25.4513C14.2859 25.8688 14.7043 26.2068 14.9957 26.4408C15.1415 26.5578 15.2555 26.6488 15.3333 26.7107L15.4224 26.7815L15.4455 26.7998L15.4515 26.8045L15.4531 26.8058L15.4535 26.8061C15.4536 26.8062 15.4537 26.8063 16.0735 26.0215ZM16.0735 26.0215L15.4537 26.8063C15.8213 27.0965 16.341 27.0928 16.7044 26.7973L16.0735 26.0215Z" stroke="#1D1D1B" stroke-width="2" stroke-linecap="round" stroke-linejoin="round"/>
</svg>
