<svg width="73" height="71" viewBox="0 0 73 71" fill="none" xmlns="http://www.w3.org/2000/svg">
<path d="M38.6951 70.4411C27.9805 70.5368 17.6114 68.5052 7.44095 65.2887C0.82242 63.235 -0.824859 60.1877 1.13864 53.5558C3.19038 46.6737 5.47746 39.8209 7.68363 32.9461C8.0881 31.6801 8.49256 30.5539 7.14679 29.4425C5.99223 28.4929 6.32316 26.9693 6.47759 25.6738C7.0512 20.8305 12.7064 15.4131 17.582 14.6329C20.7663 14.1471 23.9064 13.3448 27.0465 12.5866C27.7435 12.4792 28.3857 12.1448 28.8736 11.6352C29.3615 11.1255 29.6679 10.4691 29.7454 9.76754C30.2896 6.7276 32.3855 4.76232 35.5403 4.89481C37.945 4.99786 39.6953 4.44581 41.019 2.44372C41.3319 1.91783 41.8222 1.52107 42.4015 1.32491C43.5781 1.12617 44.6077 -1.27339 45.9461 0.905354C47.2845 3.0841 44.718 2.64246 44.0194 3.45213C42.9825 4.63719 40.7763 5.24812 41.6367 7.36061C42.4971 9.47311 42.8427 11.6666 46.3285 11.6445C50.9372 11.5808 55.4716 12.8098 59.4185 15.1923C64.4045 18.2249 65.9341 22.1334 64.3236 27.8746C64 29.0229 64.5148 29.9945 64.7942 30.9882C67.1475 39.3204 69.589 47.6232 71.9569 55.9554C73.3615 60.9091 72.7732 62.2561 68.1623 64.5894C58.889 69.2928 48.8656 70.3307 38.6951 70.4411ZM27.7378 35.9934C27.8178 36.2729 27.9879 36.518 28.2216 36.6906C28.4553 36.8632 28.7394 36.9536 29.0298 36.9477C29.3202 36.9418 29.6005 36.84 29.827 36.6581C30.0535 36.4761 30.2136 36.2243 30.2822 35.9419C30.3852 35.5223 30.4514 35.0954 30.547 34.6759C30.7862 33.0024 31.4106 31.4074 32.3708 30.0166C34.5769 27.2122 36.7831 27.2711 38.6437 30.311C40.1733 32.8136 40.6439 35.699 41.3425 38.4887C42.0412 41.2783 42.8133 43.8913 44.5489 46.0701C45.5637 47.3361 47.1301 48.9628 48.77 48.0059C50.0055 47.2699 49.2848 45.3856 48.77 44.0091C48.1082 42.3383 47.5493 40.6232 46.8506 38.9671C45.8925 36.7469 45.4862 34.3273 45.6667 31.9156C45.6789 30.8159 46.0425 29.749 46.7041 28.8709C47.3657 27.9928 48.2906 27.3497 49.3436 27.0355C51.4542 26.2995 53.0206 27.3373 54.359 28.9346L55.6092 30.4509C55.7793 30.6638 56.0116 30.8183 56.2736 30.8928C56.5356 30.9673 56.8144 30.9582 57.0709 30.8667C57.3275 30.7751 57.5492 30.6057 57.705 30.3821C57.8609 30.1585 57.9431 29.8918 57.9403 29.6191C57.9403 28.6107 57.9403 27.6612 57.9403 26.6749C58.0139 24.2679 59.2788 23.7306 60.9555 23.7821C61.1695 23.7864 61.3813 23.7381 61.5723 23.6413C61.7633 23.5446 61.9277 23.4025 62.0511 23.2274C62.1745 23.0523 62.2531 22.8496 62.28 22.6371C62.307 22.4245 62.2814 22.2086 62.2056 22.0082C60.904 18.6592 58.1463 16.8558 54.8517 15.8768C51.9984 15.0157 48.9686 14.8243 46.027 14.2281C44.0929 13.838 42.7766 14.2649 41.3278 15.8548C38.3863 19.0787 34.3563 18.9536 31.2456 15.7591C30.0837 14.5667 29.113 14.7139 27.7378 15.023C24.2961 15.8842 20.8325 16.6718 17.332 17.2312C16.4605 17.3857 15.6221 17.6895 14.8537 18.1292C14.5251 18.2512 14.2583 18.4989 14.1121 18.8178C13.9659 19.1366 13.9523 19.5006 14.0742 19.8295C14.1961 20.1584 14.4435 20.4254 14.7621 20.5718C15.0807 20.7181 15.4443 20.7317 15.773 20.6097H15.8685C16.7878 20.3668 17.7953 19.6823 18.5748 20.3815C19.3543 21.0808 18.6483 22.1334 18.3615 23.024C17.8026 24.7537 16.9716 26.4099 16.3392 28.1764C16.2236 28.4772 16.2228 28.81 16.3369 29.1113C16.451 29.4126 16.6721 29.6612 16.9578 29.8097C17.2435 29.9582 17.5739 29.996 17.8858 29.9161C18.1976 29.8361 18.4691 29.6439 18.6483 29.3762C18.8588 29.0634 19.1056 28.7768 19.3837 28.5224C21.1487 26.9693 23.1342 26.1081 25.3331 26.7926C27.5319 27.4772 27.3921 29.7369 27.5392 31.6654C27.6495 33.0565 27.3186 34.5949 27.7378 35.9934ZM35.0476 15.3837H35.2461C38.3274 15.3322 39.6585 13.9116 39.7615 11.6003C39.8718 9.03883 38.3348 7.33117 35.8565 7.33117C33.3782 7.33117 31.8266 8.92106 31.9148 11.5414C31.9957 13.9042 33.3415 15.1997 35.0476 15.3837Z" fill="#2B3333"/>
</svg>
