<svg width="94" height="94" viewBox="0 0 94 94" fill="none" xmlns="http://www.w3.org/2000/svg">
<circle cx="47" cy="47" r="47" fill="#DDDDDD"/>
<path d="M48.6435 73.9975C40.6306 74.0709 32.8814 72.5136 25.2807 70.048C20.3619 68.5246 19.1089 66.1662 20.5763 61.0827C22.1041 55.779 23.8078 50.5262 25.4511 45.2565C25.7533 44.2634 26.0446 43.4228 25.0554 42.5708C24.1925 41.843 24.4343 40.675 24.5498 39.682C24.9839 35.9695 29.2102 31.8169 32.8485 31.2188C35.2282 30.8464 37.5749 30.2314 39.9216 29.6503C40.4505 29.5771 40.9404 29.3248 41.3137 28.9334C41.6871 28.5419 41.9224 28.0337 41.9825 27.4894C42.3947 25.1592 43.9555 23.6527 46.3187 23.7543C48.1159 23.8333 49.4184 23.4101 50.4131 21.8754C50.6428 21.4731 51.0055 21.1688 51.4354 21.0178C52.3147 20.8655 53.0841 19.0262 54.0789 20.6962C55.0736 22.3663 53.1665 22.0278 52.6389 22.6484C51.875 23.5568 50.2263 24.0251 50.8418 25.6444C51.4573 27.2637 51.7376 28.945 54.3427 28.9281C57.7892 28.8803 61.1799 29.8243 64.1307 31.6533C67.8514 33.9778 69 36.9738 67.7964 41.3747C67.5546 42.2548 67.9338 42.9996 68.1427 43.7613C69.9068 50.1482 71.7315 56.5125 73.4956 62.8994C74.5508 66.6966 74.1057 67.7291 70.6653 69.5177C63.735 73.1173 56.2717 73.9129 48.6435 73.9975ZM40.4547 47.5923C40.5145 47.8065 40.6416 47.9944 40.8163 48.1267C40.9909 48.259 41.2033 48.3283 41.4203 48.3238C41.6373 48.3193 41.8467 48.2412 42.016 48.1018C42.1853 47.9623 42.3049 47.7693 42.3562 47.5528C42.4332 47.2312 42.4826 46.904 42.5486 46.5824C42.8234 45.3298 43.0982 44.0603 43.9171 43.0109C45.5658 40.8612 47.2146 40.9064 48.5995 43.2366C49.7481 45.1549 50.0999 47.3666 50.622 49.505C51.1441 51.6434 51.7211 53.6463 53.0127 55.3164C53.7711 56.2868 54.9472 57.5338 56.1728 56.8003C57.0906 56.2361 56.552 54.7917 56.1728 53.7366C55.6781 52.4558 55.2659 51.1412 54.7384 49.8717C54.0239 48.1695 53.7222 46.3148 53.859 44.4666C53.8682 43.6236 54.1399 42.8058 54.6343 42.1327C55.1288 41.4596 55.82 40.9666 56.6069 40.7258C58.1787 40.1616 59.3548 40.9572 60.3551 42.1815L61.2179 43.3438C61.3451 43.507 61.5187 43.6254 61.7145 43.6825C61.9103 43.7397 62.1186 43.7327 62.3104 43.6625C62.5021 43.5923 62.6678 43.4625 62.7843 43.2911C62.9007 43.1196 62.9622 42.9152 62.9601 42.7062C62.9601 41.9332 62.9601 41.2054 62.9601 40.4494C63.0151 38.6044 63.9604 38.1925 65.2134 38.232C65.3686 38.236 65.5225 38.2018 65.6622 38.1323C65.802 38.0627 65.9234 37.9599 66.0165 37.8323C66.1096 37.7047 66.1716 37.5561 66.1972 37.3989C66.2229 37.2417 66.2116 37.0804 66.1642 36.9287C65.1969 34.3615 63.1305 32.9792 60.6684 32.2288C58.536 31.5686 56.2717 31.4219 54.0734 30.9649C52.6225 30.6659 51.6442 30.9931 50.556 32.2118C48.3577 34.6831 45.346 34.5872 43.0267 32.1385C42.1529 31.2245 41.4329 31.3373 40.3997 31.5743C37.8332 32.2344 35.2391 32.8381 32.6231 33.2669C31.9718 33.3854 31.3453 33.6182 30.771 33.9553C30.561 34.078 30.4024 34.2759 30.3254 34.5111C30.2484 34.7462 30.2584 35.0023 30.3535 35.2303C30.4487 35.4584 30.6222 35.6426 30.8411 35.7477C31.06 35.8528 31.309 35.8715 31.5405 35.8002H31.6119C32.2989 35.614 33.0518 35.0893 33.6289 35.6253C34.2059 36.1613 33.6893 36.9682 33.475 37.6509C33.0518 38.9768 32.4308 40.2462 31.9581 41.6004C31.8718 41.8309 31.8711 42.086 31.9564 42.317C32.0417 42.5479 32.2069 42.7385 32.4205 42.8523C32.634 42.9661 32.8809 42.9951 33.1139 42.9338C33.347 42.8725 33.5499 42.7252 33.6838 42.52C33.8432 42.2819 34.0275 42.0624 34.2334 41.8655C35.5524 40.675 37.0363 40.0149 38.674 40.5396C40.3118 41.0644 40.2184 42.7965 40.3228 44.2747C40.3832 45.3411 40.1414 46.5203 40.4547 47.5923ZM45.912 31.7943H46.0604C48.3632 31.7548 49.3579 30.6659 49.4349 28.8943C49.5173 26.9308 48.3687 25.6218 46.5221 25.6218C44.6755 25.6218 43.5049 26.8405 43.5763 28.8491C43.6313 30.6602 44.6425 31.6533 45.912 31.7943Z" fill="white"/>
</svg>
