<svg width="26" height="26" viewBox="0 0 26 26" fill="none" xmlns="http://www.w3.org/2000/svg">
<path d="M18.6764 7.87409C19.1864 5.0185 17.0583 2.32699 13.9231 1.86244C10.788 1.39789 7.83294 3.33621 7.32291 6.1918C6.81288 9.04739 8.94097 11.7389 12.0761 12.2034C15.2113 12.668 18.1663 10.7297 18.6764 7.87409Z" stroke="#1D1D1B" stroke-width="2" stroke-miterlimit="10"/>
<path d="M1 25.0218C0.999062 23.7056 1.28299 22.4022 1.83556 21.186C2.38813 19.9698 3.19849 18.8648 4.22031 17.9341C5.24212 17.0034 6.45534 16.2653 7.79059 15.762C9.12583 15.2587 10.5569 15.0001 12.002 15.001H13.9978C16.9157 15.001 19.7141 16.0567 21.7773 17.936C23.8406 19.8153 24.9997 22.3641 24.9997 25.0218" stroke="#1D1D1B" stroke-width="2" stroke-miterlimit="10"/>
</svg>
