<svg width="26" height="25" viewBox="0 0 26 25" fill="none" xmlns="http://www.w3.org/2000/svg">
<path d="M18.6764 7.8526C19.1864 4.99701 17.0583 2.30551 13.9231 1.84096C10.788 1.37641 7.83294 3.31473 7.32291 6.17032C6.81288 9.02591 8.94097 11.7174 12.0761 12.182C15.2113 12.6465 18.1663 10.7082 18.6764 7.8526Z" stroke="#407070" stroke-width="2" stroke-miterlimit="10"/>
<path d="M1 25.0004C0.999062 23.6842 1.28299 22.3807 1.83556 21.1645C2.38813 19.9484 3.19849 18.8433 4.22031 17.9126C5.24212 16.9819 6.45534 16.2438 7.79059 15.7405C9.12583 15.2373 10.5569 14.9786 12.002 14.9795H13.9978C16.9157 14.9795 19.7141 16.0353 21.7773 17.9145C23.8406 19.7938 24.9997 22.3427 24.9997 25.0004" stroke="#407070" stroke-width="2" stroke-miterlimit="10"/>
</svg>
